# File created by Blade
# Date/Time:  Tue Sep 30 19:06:18 2014
#---------------------------------------------------------
:version 1.10
:name HOM
:units
  mass 1.0
  length 1.000000
  angle deg
:documentation
     Acclaim Skeleton File
:root
   axis xyz
   order TX TY TZ RX RY RZ
   position 0.000000 0.000000 0.000000
   orientation 0 0 0
:bonedata
   begin
      id 1
      name Spine_dum
      direction 0.000000 1.000000 0.000000
      length 7.508948
      axis 0.0 0.0 0.0 xyz
   end
   begin
      id 2
      name LeftUpLeg_dum
      direction 1.000000 0.000000 0.000000
      length 3.000560
      axis 0.0 0.0 0.0 xyz
   end
   begin
      id 3
      name RightUpLeg_dum
      direction -1.000000 0.000000 0.000000
      length 3.000560
      axis 0.0 0.0 0.0 xyz
   end
   begin
      id 4
      name Spine
      direction 0.000000 1.000000 0.000000
      length 0.000000
      axis 0.0 0.0 0.0 xyz
      dof rx ry rz
   end
   begin
      id 5
      name Spine_dum1
      direction 0.000000 1.000000 0.000000
      length 13.861154
      axis 0.0 0.0 0.0 xyz
   end
   begin
      id 6
      name Spine_dum2
      direction 0.000000 1.000000 0.000000
      length 8.204781
      axis 0.0 0.0 0.0 xyz
   end
   begin
      id 7
      name Spine_dum3
      direction 0.000000 1.000000 0.000000
      length 8.204781
      axis 0.0 0.0 0.0 xyz
   end
   begin
      id 8
      name Head
      direction 0.000000 1.000000 0.000000
      length 4.527550
      axis 0.0 0.0 0.0 xyz
      dof rx ry rz
   end
   begin
      id 9
      name LeftShoulder
      direction 1.000000 0.000000 0.000000
      length 6.635956
      axis 0.0 0.0 -90.0 xyz
      dof rx ry rz
   end
   begin
      id 10
      name LeftArm
      direction 1.000000 0.000000 0.000000
      length 10.274218
      axis 0.0 0.0 -90.0 xyz
      dof rx ry rz
   end
   begin
      id 11
      name LeftForeArm
      direction 1.000000 0.000000 0.000000
      length 8.522147
      axis 0.0 0.0 -90.0 xyz
      dof ry rz rx
   end
   begin
      id 12
      name LeftHand
      direction 0.000000 0.000000 0.000000
      length 0.000000
      axis 0.0 0.0 -90.0 xyz
      dof rx ry rz
   end
   begin
      id 13
      name LeftHand_dum1
      direction 0.000000 0.000000 0.000000
      length 0.000000
      axis 0.0 0.0 -90.0 xyz
   end
   begin
      id 14
      name LeftHand_dum2
      direction 1.000000 0.000000 0.000000
      length 3.937000
      axis 0.0 0.0 -90.0 xyz
   end
   begin
      id 15
      name LeftHandThumb1
      direction 0.000000 0.000000 1.000000
      length 3.937000
      axis 0.0 0.0 -90.0 xyz
      dof rx rz ry
   end
   begin
      id 16
      name RightShoulder
      direction -1.000000 0.000000 0.000000
      length 6.635956
      axis 0.0 0.0 90.0 xyz
      dof rx ry rz
   end
   begin
      id 17
      name RightArm
      direction -1.000000 0.000000 0.000000
      length 10.274218
      axis 0.0 0.0 90.0 xyz
      dof rx ry rz
   end
   begin
      id 18
      name RightForeArm
      direction -1.000000 0.000000 0.000000
      length 8.522147
      axis 0.0 0.0 90.0 xyz
      dof ry rz rx
   end
   begin
      id 19
      name RightHand
      direction 0.000000 0.000000 0.000000
      length 0.000000
      axis 0.0 0.0 90.0 xyz
      dof rx ry rz
   end
   begin
      id 20
      name RightHand_dum1
      direction 0.000000 0.000000 0.000000
      length 0.000000
      axis 0.0 0.0 90.0 xyz
   end
   begin
      id 21
      name RightHand_dum2
      direction -1.000000 0.000000 0.000000
      length 3.937000
      axis 0.0 0.0 90.0 xyz
   end
   begin
      id 22
      name RightHandThumb1
      direction 0.000000 0.000000 1.000000
      length 3.937000
      axis 0.0 0.0 90.0 xyz
      dof rx rz ry
   end
   begin
      id 23
      name LeftUpLeg
      direction 0.000000 -1.000000 0.000000
      length 16.490845
      axis 0.0 0.0 0.0 xyz
      dof rx ry rz
   end
   begin
      id 24
      name LeftLeg
      direction 0.000000 -1.000000 0.000000
      length 14.556576
      axis 0.0 0.0 0.0 xyz
      dof rx ry rz
   end
   begin
      id 25
      name LeftFoot
      direction 0.000000 -0.258819 0.965926
      length 4.831116
      axis 15.0 0.0 0.0 xyz
      dof rx ry rz
   end
   begin
      id 26
      name LeftToeBase
      direction 0.000000 0.000000 1.000000
      length 2.952750
      axis 0.0 0.0 0.0 xyz
      dof rx ry rz
   end
   begin
      id 27
      name RightUpLeg
      direction 0.000000 -1.000000 0.000000
      length 16.490845
      axis 0.0 0.0 0.0 xyz
      dof rx ry rz
   end
   begin
      id 28
      name RightLeg
      direction 0.000000 -1.000000 0.000000
      length 14.556576
      axis 0.0 0.0 0.0 xyz
      dof rx ry rz
   end
   begin
      id 29
      name RightFoot
      direction 0.000000 -0.258819 0.965926
      length 4.831116
      axis 15.0 0.0 0.0 xyz
      dof rx ry rz
   end
   begin
      id 30
      name RightToeBase
      direction 0.000000 0.000000 1.000000
      length 2.952750
      axis 0.0 0.0 0.0 xyz
      dof rx ry rz
   end
:hierarchy
   begin
      root Spine_dum LeftUpLeg_dum RightUpLeg_dum
      Spine_dum Spine
      LeftUpLeg_dum LeftUpLeg
      RightUpLeg_dum RightUpLeg
      Spine Spine_dum1 Spine_dum2 Spine_dum3
      Spine_dum1 Head
      Spine_dum2 LeftShoulder
      Spine_dum3 RightShoulder
      LeftShoulder LeftArm
      LeftArm LeftForeArm
      LeftForeArm LeftHand
      LeftHand LeftHand_dum1 LeftHand_dum2
      LeftHand_dum1 LeftHandThumb1
      RightShoulder RightArm
      RightArm RightForeArm
      RightForeArm RightHand
      RightHand RightHand_dum1 RightHand_dum2
      RightHand_dum1 RightHandThumb1
      LeftUpLeg LeftLeg
      LeftLeg LeftFoot
      LeftFoot LeftToeBase
      RightUpLeg RightLeg
      RightLeg RightFoot
      RightFoot RightToeBase
   end

# File created by Blade
# Date/Time:  Thu Sep 25 18:39:44 2014
# Frame Rate: 120.000 fps
#------------------------------------------------------
:FULLY-SPECIFIED
:DEGREES
164
root -1.179994 33.017431 -2.786253 9.773129 6.062629 -0.779367
Spine -13.972298 3.659826 0.372987
Head 6.191080 -16.811369 16.235385
LeftShoulder -9.959429 8.489247 27.957487
LeftArm 17.842771 -49.254729 -32.735560
LeftForeArm -4.912033 -0.000000 34.721269
LeftHand -20.330981 -0.000000 -5.419408
LeftHandThumb1 -26.253704 0.000000 33.147579
RightShoulder -23.704909 25.114310 -52.190162
RightArm 38.649171 53.796314 52.601766
RightForeArm 7.830203 -0.000000 84.787579
RightHand -7.428828 -0.000000 -3.814566
RightHandThumb1 -24.326973 -0.000000 -32.862282
LeftUpLeg -4.543649 5.084367 2.133905
LeftLeg -0.346871 -0.000000 0.000000
LeftFoot -9.179008 0.546575 -10.221674
LeftToeBase 9.843837 -0.000000 -0.000000
RightUpLeg -4.789408 -6.908141 1.155877
RightLeg 1.953515 -0.000000 -0.000000
RightFoot -8.741853 -3.967133 0.324769
RightToeBase -0.407099 -0.000000 0.000000
165
root -1.182904 33.017926 -2.787861 9.769694 6.019081 -0.778097
Spine -13.964595 3.798251 0.353701
Head 6.339631 -16.905404 16.340339
LeftShoulder -9.855910 8.435520 27.956518
LeftArm 17.827607 -49.275621 -32.677123
LeftForeArm -5.372173 -0.000000 34.655814
LeftHand -20.280736 -0.000000 -5.332780
LeftHandThumb1 -26.253704 0.000000 33.147579
RightShoulder -23.888331 25.616060 -52.742628
RightArm 39.798736 53.524162 53.614962
RightForeArm 8.412265 -0.000000 85.577628
RightHand -7.272326 -0.000000 -3.923791
RightHandThumb1 -24.326973 -0.000000 -32.862282
LeftUpLeg -4.524156 5.107365 2.131002
LeftLeg -0.374130 -0.000000 0.000000
LeftFoot -9.164260 0.565787 -10.257030
LeftToeBase 9.830525 -0.000000 -0.000000
RightUpLeg -4.743499 -6.799976 1.143696
RightLeg 1.854161 -0.000000 -0.000000
RightFoot -8.696996 -3.998441 0.386839
RightToeBase -0.398814 -0.000000 0.000000
166
root -1.188844 33.017428 -2.793726 9.797113 5.992384 -0.797615
Spine -13.972906 3.923733 0.323311
Head 6.414193 -17.009861 16.544949
LeftShoulder -9.807644 8.365967 28.033723
LeftArm 17.908835 -49.282833 -32.775033
LeftForeArm -5.711526 -0.000000 34.621347
LeftHand -20.354178 -0.000000 -5.223854
LeftHandThumb1 -26.253704 0.000000 33.147579
RightShoulder -23.859921 25.506408 -52.774966
RightArm 41.906277 53.729180 55.119549
RightForeArm 9.074531 -0.000000 86.325754
RightHand -7.202476 -0.000000 -3.980750
RightHandThumb1 -24.326973 -0.000000 -32.862282
LeftUpLeg -4.557281 5.133760 2.152451
LeftLeg -0.383353 -0.000000 0.000000
LeftFoot -9.165939 0.565893 -10.265537
LeftToeBase 9.832083 -0.000000 -0.000000
RightUpLeg -4.797032 -6.784827 1.178372
RightLeg 1.875062 -0.000000 -0.000000
RightFoot -8.700985 -4.015161 0.358201
RightToeBase -0.360373 -0.000000 0.000000
167
root -1.193761 33.018265 -2.795520 9.800765 5.956739 -0.815453
Spine -13.965764 4.066275 0.316014
Head 6.524190 -17.121887 16.675421
LeftShoulder -9.746033 8.323745 28.048122
LeftArm 17.975594 -49.304706 -32.816090
LeftForeArm -5.980283 -0.000000 34.592151
LeftHand -20.338821 0.000000 -5.181960
LeftHandThumb1 -26.253704 0.000000 33.147579
RightShoulder -24.076841 26.018815 -53.392849
RightArm 42.737827 53.374046 55.857993
RightForeArm 9.470857 -0.000000 87.172856
RightHand -7.144384 -0.000000 -4.039129
RightHandThumb1 -24.326973 -0.000000 -32.862282
LeftUpLeg -4.550452 5.153931 2.175259
LeftLeg -0.405363 -0.000000 0.000000
LeftFoot -9.157211 0.586795 -10.283028
LeftToeBase 9.822957 -0.000000 -0.000000
RightUpLeg -4.807797 -6.785945 1.202702
RightLeg 1.868360 -0.000000 -0.000000
RightFoot -8.682827 -3.974185 0.360601
RightToeBase -0.391579 -0.000000 0.000000
168
root -1.195422 33.018966 -2.794713 9.815815 5.931091 -0.847451
Spine -13.976570 4.189332 0.345739
Head 6.620920 -17.195872 16.788675
LeftShoulder -9.731653 8.325546 28.053070
LeftArm 18.111631 -49.379787 -32.954122
LeftForeArm -6.188870 -0.000000 34.611003
LeftHand -20.369960 -0.000000 -5.206268
LeftHandThumb1 -26.253704 0.000000 33.147579
RightShoulder -24.184773 26.207582 -53.732707
RightArm 44.127457 53.211824 56.841934
RightForeArm 9.793364 -0.000000 87.968176
RightHand -7.159790 -0.000000 -4.184706
RightHandThumb1 -24.326973 -0.000000 -32.862282
LeftUpLeg -4.542437 5.170656 2.205027
LeftLeg -0.450072 -0.000000 0.000000
LeftFoot -9.152924 0.604925 -10.254378
LeftToeBase 9.876992 -0.000000 -0.000000
RightUpLeg -4.850600 -6.908962 1.243323
RightLeg 1.911481 -0.000000 -0.000000
RightFoot -8.675561 -3.812140 0.358467
RightToeBase -0.358817 -0.000000 0.000000
169
root -1.199593 33.018809 -2.798122 9.828888 5.896980 -0.861738
Spine -13.957906 4.299924 0.345209
Head 6.680449 -17.211592 16.912656
LeftShoulder -9.699145 8.299395 28.041018
LeftArm 18.142279 -49.461423 -32.961440
LeftForeArm -6.334772 -0.000000 34.659480
LeftHand -20.323901 -0.000000 -5.308916
LeftHandThumb1 -26.253704 0.000000 33.147579
RightShoulder -24.341953 26.370042 -54.018460
RightArm 45.593171 52.952158 57.827119
RightForeArm 10.330682 0.000000 88.725884
RightHand -7.021900 -0.000000 -4.682742
RightHandThumb1 -24.326973 -0.000000 -32.862282
LeftUpLeg -4.551553 5.205586 2.223273
LeftLeg -0.474097 -0.000000 0.000000
LeftFoot -9.135894 0.582411 -10.266882
LeftToeBase 9.856254 -0.000000 -0.000000
RightUpLeg -4.846153 -6.818597 1.258350
RightLeg 1.848714 -0.000000 -0.000000
RightFoot -8.626234 -3.871855 0.326243
RightToeBase -0.405680 -0.000000 0.000000
170
root -1.204428 33.017868 -2.800729 9.856915 5.875795 -0.887728
Spine -13.958147 4.396880 0.342598
Head 6.726137 -17.200971 17.090159
LeftShoulder -9.672176 8.233033 28.082659
LeftArm 18.117950 -49.445962 -32.959450
LeftForeArm -6.333963 -0.000000 34.736356
LeftHand -20.269815 -0.000000 -5.094156
LeftHandThumb1 -26.253704 0.000000 33.147579
RightShoulder -24.430091 26.587365 -54.366696
RightArm 46.767177 52.796326 58.666587
RightForeArm 10.859716 -0.000000 89.540887
RightHand -6.844056 -0.000000 -4.820157
RightHandThumb1 -24.326973 -0.000000 -32.862282
LeftUpLeg -4.571334 5.217013 2.252044
LeftLeg -0.501323 -0.000000 0.000000
LeftFoot -9.142679 0.586224 -10.268781
LeftToeBase 9.871390 -0.000000 -0.000000
RightUpLeg -4.879444 -6.807660 1.292593
RightLeg 1.842267 -0.000000 -0.000000
RightFoot -8.631592 -3.856679 0.333926
RightToeBase -0.357529 -0.000000 0.000000
171
root -1.211608 33.019099 -2.803463 9.872570 5.866638 -0.916776
Spine -13.948768 4.472704 0.357534
Head 6.826530 -17.167469 17.188819
LeftShoulder -9.620438 8.179192 28.073444
LeftArm 18.057122 -49.576930 -32.917433
LeftForeArm -6.594705 -0.000000 34.856245
LeftHand -20.267305 -0.000000 -5.268592
LeftHandThumb1 -26.253704 0.000000 33.147579
RightShoulder -24.649226 26.778095 -54.638476
RightArm 48.291557 52.438960 59.695670
RightForeArm 11.388962 -0.000000 90.268996
RightHand -6.730724 0.000000 -4.857688
RightHandThumb1 -24.326973 -0.000000 -32.862282
LeftUpLeg -4.591655 5.233808 2.291184
LeftLeg -0.505440 -0.000000 0.000000
LeftFoot -9.136207 0.583411 -10.284966
LeftToeBase 9.867231 -0.000000 -0.000000
RightUpLeg -4.894868 -6.833906 1.329840
RightLeg 1.813531 -0.000000 -0.000000
RightFoot -8.578903 -3.763319 0.371747
RightToeBase -0.426825 -0.000000 0.000000
172
root -1.215146 33.019473 -2.805518 9.889695 5.849991 -0.922904
Spine -13.934483 4.543628 0.342297
Head 6.911007 -17.136345 17.325285
LeftShoulder -9.598815 8.144575 28.062256
LeftArm 18.033874 -49.600952 -32.842201
LeftForeArm -6.448499 -0.000000 34.940982
LeftHand -20.189523 0.000000 -5.340224
LeftHandThumb1 -26.253704 0.000000 33.147579
RightShoulder -24.775996 27.055129 -54.974188
RightArm 49.433035 52.191545 60.475776
RightForeArm 12.141376 -0.000000 91.097520
RightHand -6.611992 0.000000 -4.754966
RightHandThumb1 -24.326973 -0.000000 -32.862282
LeftUpLeg -4.604773 5.232625 2.295910
LeftLeg -0.509715 -0.000000 0.000000
LeftFoot -9.137358 0.625836 -10.317222
LeftToeBase 9.829263 -0.000000 -0.000000
RightUpLeg -4.904870 -6.796964 1.336935
RightLeg 1.786355 -0.000000 -0.000000
RightFoot -8.562307 -3.759487 0.424654
RightToeBase -0.419906 -0.000000 0.000000
